{
    "asset" : {
        "generator" : "Khronos glTF Blender I/O v3.3.32",
        "version" : "2.0"
    },
    "extensionsUsed" : [
        "KHR_texture_transform"
    ],
    "extensionsRequired" : [
        "KHR_texture_transform"
    ],
    "scene" : 0,
    "scenes" : [
        {
            "name" : "Scene",
            "nodes" : [
                6
            ]
        }
    ],
    "nodes" : [
        {
            "mesh" : 0,
            "name" : "TV_body_low.001"
        },
        {
            "mesh" : 1,
            "name" : "TV_body_low.002"
        },
        {
            "children" : [
                1
            ],
            "name" : "TV_screen_low"
        },
        {
            "children" : [
                0,
                2
            ],
            "name" : "TV_body_low",
            "scale" : [
                100,
                100,
                100
            ]
        },
        {
            "children" : [
                3
            ],
            "name" : "RootNode"
        },
        {
            "children" : [
                4
            ],
            "name" : "eb8b5568a0e9439bb776f9dcf3769961.fbx",
            "rotation" : [
                1,
                0,
                0,
                2.5230739806453295e-16
            ]
        },
        {
            "children" : [
                5
            ],
            "name" : "Sketchfab_model",
            "rotation" : [
                0.0018823316786438227,
                0.7071042656898499,
                -0.7071042656898499,
                0.0018823317950591445
            ],
            "translation" : [
                7.549680709838867,
                36.07363510131836,
                0.020097466185688972
            ]
        }
    ],
    "materials" : [
        {
            "doubleSided" : true,
            "name" : "TV_Body_material",
            "normalTexture" : {
                "index" : 0
            },
            "occlusionTexture" : {
                "index" : 1,
                "strength" : 0.7313308119773865
            },
            "pbrMetallicRoughness" : {
                "baseColorTexture" : {
                    "index" : 2
                },
                "metallicRoughnessTexture" : {
                    "index" : 1
                }
            }
        },
        {
            "doubleSided" : true,
            "name" : "TV_Screen_material",
            "occlusionTexture" : {
                "index" : 3
            },
            "pbrMetallicRoughness" : {
                "baseColorTexture" : {
                    "extensions" : {
                        "KHR_texture_transform" : {
                            "scale" : [
                                -1,
                                1
                            ]
                        }
                    },
                    "index" : 4
                },
                "metallicRoughnessTexture" : {
                    "index" : 3
                }
            }
        }
    ],
    "meshes" : [
        {
            "name" : "TV_screen_low",
            "primitives" : [
                {
                    "attributes" : {
                        "POSITION" : 0,
                        "NORMAL" : 1,
                        "TEXCOORD_0" : 2
                    },
                    "indices" : 3,
                    "material" : 0
                }
            ]
        },
        {
            "name" : "tv_screen_low",
            "primitives" : [
                {
                    "attributes" : {
                        "POSITION" : 4,
                        "NORMAL" : 5,
                        "TEXCOORD_0" : 6
                    },
                    "indices" : 7,
                    "material" : 1
                }
            ]
        }
    ],
    "textures" : [
        {
            "sampler" : 0,
            "source" : 0
        },
        {
            "sampler" : 0,
            "source" : 1
        },
        {
            "sampler" : 0,
            "source" : 2
        },
        {
            "sampler" : 0,
            "source" : 3
        },
        {
            "sampler" : 0,
            "source" : 4
        }
    ],
    "images" : [
        {
            "mimeType" : "image/png",
            "name" : "TV_Body_material_normal",
            "uri" : "TV_Body_material_normal.png"
        },
        {
            "mimeType" : "image/png",
            "name" : "TV_Body_material_metallicRoughness",
            "uri" : "TV_Body_material_metallicRoughness.png"
        },
        {
            "mimeType" : "image/png",
            "name" : "TV_Body_material_baseColor",
            "uri" : "TV_Body_material_baseColor.png"
        },
        {
            "mimeType" : "image/png",
            "name" : "TV_Screen_material_metallicRoughness",
            "uri" : "TV_Screen_material_metallicRoughness.png"
        },
        {
            "mimeType" : "image/png",
            "name" : "info-tv-projects_Mat",
            "uri" : "info-tv-projects_Mat.png"
        }
    ],
    "accessors" : [
        {
            "bufferView" : 0,
            "componentType" : 5126,
            "count" : 6117,
            "max" : [
                1.5655330419540405,
                2.3275370597839355,
                1.3853590488433838
            ],
            "min" : [
                -1.4933569431304932,
                -1.0780500173568726,
                -1.7461040019989014
            ],
            "type" : "VEC3"
        },
        {
            "bufferView" : 1,
            "componentType" : 5126,
            "count" : 6117,
            "type" : "VEC3"
        },
        {
            "bufferView" : 2,
            "componentType" : 5126,
            "count" : 6117,
            "type" : "VEC2"
        },
        {
            "bufferView" : 3,
            "componentType" : 5123,
            "count" : 25596,
            "type" : "SCALAR"
        },
        {
            "bufferView" : 4,
            "componentType" : 5126,
            "count" : 36,
            "max" : [
                1.168977975845337,
                -0.8115559816360474,
                1.0396909713745117
            ],
            "min" : [
                -1.1689770221710205,
                -1.020300030708313,
                -0.7137770056724548
            ],
            "type" : "VEC3"
        },
        {
            "bufferView" : 5,
            "componentType" : 5126,
            "count" : 36,
            "type" : "VEC3"
        },
        {
            "bufferView" : 6,
            "componentType" : 5126,
            "count" : 36,
            "type" : "VEC2"
        },
        {
            "bufferView" : 7,
            "componentType" : 5123,
            "count" : 150,
            "type" : "SCALAR"
        }
    ],
    "bufferViews" : [
        {
            "buffer" : 0,
            "byteLength" : 73404,
            "byteOffset" : 0,
            "target" : 34962
        },
        {
            "buffer" : 0,
            "byteLength" : 73404,
            "byteOffset" : 73404,
            "target" : 34962
        },
        {
            "buffer" : 0,
            "byteLength" : 48936,
            "byteOffset" : 146808,
            "target" : 34962
        },
        {
            "buffer" : 0,
            "byteLength" : 51192,
            "byteOffset" : 195744,
            "target" : 34963
        },
        {
            "buffer" : 0,
            "byteLength" : 432,
            "byteOffset" : 246936,
            "target" : 34962
        },
        {
            "buffer" : 0,
            "byteLength" : 432,
            "byteOffset" : 247368,
            "target" : 34962
        },
        {
            "buffer" : 0,
            "byteLength" : 288,
            "byteOffset" : 247800,
            "target" : 34962
        },
        {
            "buffer" : 0,
            "byteLength" : 300,
            "byteOffset" : 248088,
            "target" : 34963
        }
    ],
    "samplers" : [
        {
            "magFilter" : 9729,
            "minFilter" : 9987
        }
    ],
    "buffers" : [
        {
            "byteLength" : 248388,
            "uri" : "scene.bin"
        }
    ]
}
